<svg xmlns="http://www.w3.org/2000/svg" xmlns:xlink="http://www.w3.org/1999/xlink" version="1.1" width="1000" height="1000" viewBox="0 0 1000 1000" xml:space="preserve">
<desc>Created with Fabric.js 3.5.0</desc>
<defs>
</defs>
<rect x="0" y="0" width="100%" height="100%" fill="rgba(255,255,255,0)"/>
<g transform="matrix(41.7754 0 0 41.7754 501.3048 501.3048)" id="261908">
<g style="" vector-effect="non-scaling-stroke">
		<g transform="matrix(1 0 0 1 0.0002 5.35)">
<path style="stroke: none; stroke-width: 1; stroke-dasharray: none; stroke-linecap: butt; stroke-dashoffset: 0; stroke-linejoin: miter; stroke-miterlimit: 4; is-custom-font: none; font-file-url: none; fill: rgb(255,255,255); fill-rule: nonzero; opacity: 1;" transform=" translate(-12.0002, -1045.75)" d="m 8.4062 1041.1 c -2.8856 1.3 -4.9781 4 -5.3437 7.3 c 0 1.1 0.8329 2 1.9375 2 h 14 c 1.105 0 1.938 -0.9 1.938 -2 c -0.366 -3.3 -2.459 -6 -5.344 -7.3 c -0.649 1.3 -2.011 2.3 -3.594 2.3 s -2.9453 -1 -3.5938 -2.3 z" stroke-linecap="round"/>
</g>
		<g transform="matrix(1 0 0 1 0 -5)">
<path style="stroke: none; stroke-width: 1; stroke-dasharray: none; stroke-linecap: butt; stroke-dashoffset: 0; stroke-linejoin: miter; stroke-miterlimit: 4; is-custom-font: none; font-file-url: none; fill: rgb(255,255,255); fill-rule: nonzero; opacity: 1;" transform=" translate(-12, -4)" d="m 17 4 a 5 5 0 1 1 -10 0 a 5 5 0 1 1 10 0 z" stroke-linecap="round"/>
</g>
		<g transform="matrix(1 0 0 1 0.0002 4)">
<path style="stroke: none; stroke-width: 1; stroke-dasharray: none; stroke-linecap: butt; stroke-dashoffset: 0; stroke-linejoin: miter; stroke-miterlimit: 4; is-custom-font: none; font-file-url: none; fill: rgb(255,255,255); fill-rule: nonzero; opacity: 1;" transform=" translate(-12.0002, -16)" d="m 12 11 c -1.277 0 -2.4943 0.269 -3.5938 0.75 c -2.8856 1.262 -4.9781 3.997 -5.3437 7.25 c 0 1.105 0.8329 2 1.9375 2 h 14 c 1.105 0 1.938 -0.895 1.938 -2 c -0.366 -3.253 -2.459 -5.988 -5.344 -7.25 c -1.1 -0.481 -2.317 -0.75 -3.594 -0.75 z" stroke-linecap="round"/>
</g>
</g>
</g>
</svg>